<svg width="15" height="15" viewBox="0 0 15 15" fill="none" xmlns="http://www.w3.org/2000/svg">
<path d="M12.1875 2.5H10.3125V1.5625C10.3125 1.47962 10.2796 1.40013 10.221 1.34153C10.1624 1.28292 10.0829 1.25 10 1.25C9.91712 1.25 9.83763 1.28292 9.77903 1.34153C9.72042 1.40013 9.6875 1.47962 9.6875 1.5625V2.5H5.3125V1.5625C5.3125 1.47962 5.27958 1.40013 5.22097 1.34153C5.16237 1.28292 5.08288 1.25 5 1.25C4.91712 1.25 4.83763 1.28292 4.77903 1.34153C4.72042 1.40013 4.6875 1.47962 4.6875 1.5625V2.5H2.8125C2.39825 2.5005 2.00111 2.66528 1.70819 2.95819C1.41528 3.25111 1.2505 3.64825 1.25 4.0625V12.1875C1.2505 12.6017 1.41528 12.9989 1.70819 13.2918C2.00111 13.5847 2.39825 13.7495 2.8125 13.75H12.1875C12.6019 13.75 12.9993 13.5854 13.2924 13.2924C13.5854 12.9993 13.75 12.6019 13.75 12.1875V4.0625C13.75 3.6481 13.5854 3.25067 13.2924 2.95765C12.9993 2.66462 12.6019 2.5 12.1875 2.5ZM13.125 12.1875C13.125 12.4361 13.0262 12.6746 12.8504 12.8504C12.6746 13.0262 12.4361 13.125 12.1875 13.125H2.8125C2.56386 13.125 2.3254 13.0262 2.14959 12.8504C1.97377 12.6746 1.875 12.4361 1.875 12.1875V6.875H13.125V12.1875ZM13.125 6.25H1.875V4.0625C1.875 3.545 2.29375 3.125 2.8125 3.125H4.6875V4.0625C4.6875 4.14538 4.72042 4.22487 4.77903 4.28347C4.83763 4.34208 4.91712 4.375 5 4.375C5.08288 4.375 5.16237 4.34208 5.22097 4.28347C5.27958 4.22487 5.3125 4.14538 5.3125 4.0625V3.125H9.6875V4.0625C9.6875 4.14538 9.72042 4.22487 9.77903 4.28347C9.83763 4.34208 9.91712 4.375 10 4.375C10.0829 4.375 10.1624 4.34208 10.221 4.28347C10.2796 4.22487 10.3125 4.14538 10.3125 4.0625V3.125H12.1875C12.4361 3.125 12.6746 3.22377 12.8504 3.39959C13.0262 3.5754 13.125 3.81386 13.125 4.0625V6.25Z" fill="#264025"/>
</svg>
