<svg width="15" height="15" viewBox="0 0 15 15" fill="none" xmlns="http://www.w3.org/2000/svg">
<path d="M5 11.25H10V10H5V11.25ZM5 8.75H10V7.5H5V8.75ZM3.75 13.75C3.40625 13.75 3.11208 13.6277 2.8675 13.3831C2.62292 13.1385 2.50042 12.8442 2.5 12.5V2.5C2.5 2.15625 2.6225 1.86208 2.8675 1.6175C3.1125 1.37292 3.40667 1.25042 3.75 1.25H8.75L12.5 5V12.5C12.5 12.8438 12.3777 13.1381 12.1331 13.3831C11.8885 13.6281 11.5942 13.7504 11.25 13.75H3.75ZM8.125 5.625V2.5H3.75V12.5H11.25V5.625H8.125Z" fill="black"/>
</svg>
