<svg width="27" height="27" viewBox="0 0 27 27" fill="none" xmlns="http://www.w3.org/2000/svg">
<path d="M1 16V26M10.1667 21H14.3333C15.2174 21 16.0652 21.3512 16.6904 21.9763C17.3155 22.6014 17.6667 23.4493 17.6667 24.3333H1V17.6667H6.83333C7.71739 17.6667 8.56524 18.0179 9.19036 18.643C9.81548 19.2681 10.1667 20.1159 10.1667 21ZM10.1667 21H6.83333M8.22222 14.3333V6.55556C8.22222 5.96619 8.45635 5.40096 8.8731 4.98421C9.28984 4.56746 9.85507 4.33334 10.4444 4.33334H23.7778C24.3671 4.33334 24.9324 4.56746 25.3491 4.98421C25.7659 5.40096 26 5.96619 26 6.55556V14.3333C26 14.9227 25.7659 15.4879 25.3491 15.9047C24.9324 16.3214 24.3671 16.5556 23.7778 16.5556H12.3889M8.22222 8.77778H26M17.1111 8.77778V11M20.4444 4.33334H13.7778L14.1789 1.92889C14.2221 1.66888 14.3564 1.4327 14.5577 1.26255C14.759 1.09239 15.0142 0.999334 15.2778 1H18.9444C19.2075 1.00012 19.4619 1.09354 19.6625 1.26363C19.8631 1.43371 19.9969 1.66945 20.04 1.92889L20.4444 4.33334Z" stroke="#7B4B36" stroke-width="1.5" stroke-linecap="round" stroke-linejoin="round"/>
</svg>
