<svg width="367" height="135" viewBox="0 0 367 135" fill="none" xmlns="http://www.w3.org/2000/svg">
<path d="M71.2825 2.88675C74.3765 1.10043 78.1885 1.10042 81.2825 2.88675L93.1778 9.75449C96.2718 11.5408 98.1778 14.8421 98.1778 18.4147V32.1502C98.1778 35.7229 96.2718 39.0242 93.1778 40.8105L81.2825 47.6782C78.1885 49.4646 74.3765 49.4646 71.2825 47.6782L59.3872 40.8105C56.2932 39.0242 54.3872 35.7229 54.3872 32.1502V18.4148C54.3872 14.8421 56.2932 11.5408 59.3872 9.7545L71.2825 2.88675Z" fill="#D9D9D9"/>
<path d="M20.2825 2.88675C23.3765 1.10043 27.1885 1.10042 30.2825 2.88675L42.1778 9.75449C45.2718 11.5408 47.1778 14.8421 47.1778 18.4147V32.1502C47.1778 35.7229 45.2718 39.0242 42.1778 40.8105L30.2825 47.6782C27.1885 49.4646 23.3765 49.4646 20.2825 47.6782L8.38722 40.8105C5.29321 39.0242 3.38721 35.7229 3.38721 32.1502V18.4148C3.38721 14.8421 5.2932 11.5408 8.38721 9.7545L20.2825 2.88675Z" fill="#D9D9D9"/>
<path d="M97.2825 45.8868C100.377 44.1004 104.188 44.1004 107.282 45.8868L119.178 52.7545C122.272 54.5408 124.178 57.8421 124.178 61.4147V75.1502C124.178 78.7229 122.272 82.0242 119.178 83.8105L107.282 90.6782C104.188 92.4646 100.377 92.4646 97.2825 90.6782L85.3872 83.8105C82.2932 82.0242 80.3872 78.7229 80.3872 75.1502V61.4148C80.3872 57.8421 82.2932 54.5408 85.3872 52.7545L97.2825 45.8868Z" fill="#DDCBB7"/>
<path d="M46.2825 45.8868C49.3765 44.1004 53.1885 44.1004 56.2825 45.8868L68.1778 52.7545C71.2718 54.5408 73.1778 57.8421 73.1778 61.4147V75.1502C73.1778 78.7229 71.2718 82.0242 68.1778 83.8105L56.2825 90.6782C53.1885 92.4646 49.3765 92.4646 46.2825 90.6782L34.3872 83.8105C31.2932 82.0242 29.3872 78.7229 29.3872 75.1502V61.4148C29.3872 57.8421 31.2932 54.5408 34.3872 52.7545L46.2825 45.8868Z" fill="#DDCBB7"/>
<path d="M119.999 3.1724C123.093 1.38607 126.905 1.38607 129.999 3.1724L141.895 10.0401C144.989 11.8265 146.895 15.1277 146.895 18.7004V32.4359C146.895 36.0085 144.989 39.3098 141.895 41.0961L129.999 47.9639C126.905 49.7502 123.093 49.7502 119.999 47.9639L108.104 41.0961C105.01 39.3098 103.104 36.0085 103.104 32.4359V18.7004C103.104 15.1277 105.01 11.8265 108.104 10.0401L119.999 3.1724Z" fill="#D9D9D9"/>
<path d="M225.999 87.0362C229.093 85.2498 232.905 85.2498 235.999 87.0362L247.895 93.9039C250.989 95.6902 252.895 98.9915 252.895 102.564V116.3C252.895 119.872 250.989 123.174 247.895 124.96L235.999 131.828C232.905 133.614 229.093 133.614 225.999 131.828L214.104 124.96C211.01 123.174 209.104 119.872 209.104 116.3V102.564C209.104 98.9915 211.01 95.6902 214.104 93.9039L225.999 87.0362Z" fill="#D9D9D9"/>
<path d="M254.999 45.104C258.093 43.3177 261.905 43.3177 264.999 45.104L276.895 51.9718C279.989 53.7581 281.895 57.0594 281.895 60.632V74.3675C281.895 77.9402 279.989 81.2415 276.895 83.0278L264.999 89.8955C261.905 91.6819 258.093 91.6819 254.999 89.8955L243.104 83.0278C240.01 81.2415 238.104 77.9402 238.104 74.3675V60.632C238.104 57.0594 240.01 53.7581 243.104 51.9718L254.999 45.104Z" fill="#DDCBB7"/>
<path d="M307.999 45.104C311.093 43.3177 314.905 43.3177 317.999 45.104L329.895 51.9718C332.989 53.7581 334.895 57.0594 334.895 60.632V74.3675C334.895 77.9402 332.989 81.2415 329.895 83.0278L317.999 89.8955C314.905 91.6819 311.093 91.6819 307.999 89.8955L296.104 83.0278C293.01 81.2415 291.104 77.9402 291.104 74.3675V60.632C291.104 57.0594 293.01 53.7581 296.104 51.9718L307.999 45.104Z" fill="#DDCBB7"/>
<path d="M282.999 87.0362C286.093 85.2498 289.905 85.2498 292.999 87.0362L304.895 93.9039C307.989 95.6902 309.895 98.9915 309.895 102.564V116.3C309.895 119.872 307.989 123.174 304.895 124.96L292.999 131.828C289.905 133.614 286.093 133.614 282.999 131.828L271.104 124.96C268.01 123.174 266.104 119.872 266.104 116.3V102.564C266.104 98.9915 268.01 95.6902 271.104 93.9039L282.999 87.0362Z" fill="#D9D9D9"/>
<path d="M336.718 87.3218C339.812 85.5355 343.624 85.5355 346.718 87.3218L358.613 94.1896C361.707 95.9759 363.613 99.2772 363.613 102.85V116.585C363.613 120.158 361.707 123.459 358.613 125.246L346.718 132.113C343.624 133.9 339.812 133.9 336.718 132.113L324.823 125.246C321.729 123.459 319.823 120.158 319.823 116.585V102.85C319.823 99.2772 321.729 95.9759 324.823 94.1896L336.718 87.3218Z" fill="#D9D9D9"/>
<path d="M148.282 45.459C151.377 43.6727 155.188 43.6727 158.282 45.459L170.178 52.3268C173.272 54.1131 175.178 57.4144 175.178 60.987V74.7225C175.178 78.2952 173.272 81.5964 170.178 83.3828L158.282 90.2505C155.188 92.0368 151.377 92.0368 148.282 90.2505L136.387 83.3828C133.293 81.5964 131.387 78.2952 131.387 74.7225V60.987C131.387 57.4144 133.293 54.1131 136.387 52.3268L148.282 45.459Z" fill="#DDCBB7"/>
<path d="M204.847 44.8868C207.941 43.1004 211.753 43.1004 214.847 44.8868L226.742 51.7545C229.836 53.5408 231.742 56.8421 231.742 60.4147V74.1502C231.742 77.7229 229.836 81.0242 226.742 82.8105L214.847 89.6782C211.753 91.4646 207.941 91.4646 204.847 89.6782L192.952 82.8105C189.858 81.0242 187.952 77.7229 187.952 74.1502V60.4148C187.952 56.8421 189.858 53.5408 192.952 51.7545L204.847 44.8868Z" fill="#DDCBB7"/>
<path d="M217.564 71.0684C217.191 71.0684 216.898 70.775 216.898 70.4017C216.898 70.0284 217.191 69.735 217.564 69.735C217.938 69.735 218.231 69.4417 218.231 69.0684C218.231 68.1843 217.88 67.3365 217.255 66.7113C216.63 66.0862 215.782 65.735 214.898 65.735H213.564C213.191 65.735 212.898 65.4417 212.898 65.0684C212.898 64.695 213.191 64.4017 213.564 64.4017C214.671 64.4017 215.564 63.5084 215.564 62.4017C215.564 61.295 214.671 60.4017 213.564 60.4017C213.191 60.4017 212.898 60.1084 212.898 59.735C212.898 59.3617 213.191 59.0684 213.564 59.0684C214.449 59.0684 215.296 59.4195 215.921 60.0447C216.547 60.6698 216.898 61.5176 216.898 62.4017C216.898 63.2284 216.604 63.975 216.098 64.5617C218.084 65.095 219.564 66.9084 219.564 69.0684C219.564 70.175 218.671 71.0684 217.564 71.0684ZM201.564 71.0684C200.458 71.0684 199.564 70.175 199.564 69.0684C199.564 66.9084 201.031 65.095 203.031 64.5617C202.538 63.975 202.231 63.2284 202.231 62.4017C202.231 61.5176 202.582 60.6698 203.207 60.0447C203.833 59.4195 204.68 59.0684 205.564 59.0684C205.938 59.0684 206.231 59.3617 206.231 59.735C206.231 60.1084 205.938 60.4017 205.564 60.4017C204.458 60.4017 203.564 61.295 203.564 62.4017C203.564 63.5084 204.458 64.4017 205.564 64.4017C205.938 64.4017 206.231 64.695 206.231 65.0684C206.231 65.4417 205.938 65.735 205.564 65.735H204.231C203.347 65.735 202.499 66.0862 201.874 66.7113C201.249 67.3365 200.898 68.1843 200.898 69.0684C200.898 69.4417 201.191 69.735 201.564 69.735C201.938 69.735 202.231 70.0284 202.231 70.4017C202.231 70.775 201.938 71.0684 201.564 71.0684ZM213.564 75.0684H205.564C204.458 75.0684 203.564 74.175 203.564 73.0684V71.735C203.564 69.1617 205.658 67.0684 208.231 67.0684H210.898C213.471 67.0684 215.564 69.1617 215.564 71.735V73.0684C215.564 74.175 214.671 75.0684 213.564 75.0684ZM208.231 68.4017C207.347 68.4017 206.499 68.7529 205.874 69.378C205.249 70.0031 204.898 70.851 204.898 71.735V73.0684C204.898 73.4417 205.191 73.735 205.564 73.735H213.564C213.938 73.735 214.231 73.4417 214.231 73.0684V71.735C214.231 70.851 213.88 70.0031 213.255 69.378C212.63 68.7529 211.782 68.4017 210.898 68.4017H208.231Z" fill="#264025"/>
<path d="M209.564 65.735C208.68 65.735 207.832 65.3838 207.207 64.7587C206.582 64.1336 206.23 63.2857 206.23 62.4017C206.23 61.5176 206.582 60.6698 207.207 60.0447C207.832 59.4195 208.68 59.0684 209.564 59.0684C210.448 59.0684 211.296 59.4195 211.921 60.0447C212.546 60.6698 212.897 61.5176 212.897 62.4017C212.897 63.2857 212.546 64.1336 211.921 64.7587C211.296 65.3838 210.448 65.735 209.564 65.735ZM209.564 60.4017C208.457 60.4017 207.564 61.295 207.564 62.4017C207.564 63.5084 208.457 64.4017 209.564 64.4017C210.67 64.4017 211.564 63.5084 211.564 62.4017C211.564 61.295 210.67 60.4017 209.564 60.4017Z" fill="#264025"/>
<path d="M217.564 71.0684C217.191 71.0684 216.898 70.775 216.898 70.4017C216.898 70.0284 217.191 69.735 217.564 69.735C217.938 69.735 218.231 69.4417 218.231 69.0684C218.231 68.1843 217.88 67.3365 217.255 66.7113C216.63 66.0862 215.782 65.735 214.898 65.735H213.564C213.191 65.735 212.898 65.4417 212.898 65.0684C212.898 64.695 213.191 64.4017 213.564 64.4017C214.671 64.4017 215.564 63.5084 215.564 62.4017C215.564 61.295 214.671 60.4017 213.564 60.4017C213.191 60.4017 212.898 60.1084 212.898 59.735C212.898 59.3617 213.191 59.0684 213.564 59.0684C214.449 59.0684 215.296 59.4195 215.921 60.0447C216.547 60.6698 216.898 61.5176 216.898 62.4017C216.898 63.2284 216.604 63.975 216.098 64.5617C218.084 65.095 219.564 66.9084 219.564 69.0684C219.564 70.175 218.671 71.0684 217.564 71.0684ZM201.564 71.0684C200.458 71.0684 199.564 70.175 199.564 69.0684C199.564 66.9084 201.031 65.095 203.031 64.5617C202.538 63.975 202.231 63.2284 202.231 62.4017C202.231 61.5176 202.582 60.6698 203.207 60.0447C203.833 59.4195 204.68 59.0684 205.564 59.0684C205.938 59.0684 206.231 59.3617 206.231 59.735C206.231 60.1084 205.938 60.4017 205.564 60.4017C204.458 60.4017 203.564 61.295 203.564 62.4017C203.564 63.5084 204.458 64.4017 205.564 64.4017C205.938 64.4017 206.231 64.695 206.231 65.0684C206.231 65.4417 205.938 65.735 205.564 65.735H204.231C203.347 65.735 202.499 66.0862 201.874 66.7113C201.249 67.3365 200.898 68.1843 200.898 69.0684C200.898 69.4417 201.191 69.735 201.564 69.735C201.938 69.735 202.231 70.0284 202.231 70.4017C202.231 70.775 201.938 71.0684 201.564 71.0684ZM213.564 75.0684H205.564C204.458 75.0684 203.564 74.175 203.564 73.0684V71.735C203.564 69.1617 205.658 67.0684 208.231 67.0684H210.898C213.471 67.0684 215.564 69.1617 215.564 71.735V73.0684C215.564 74.175 214.671 75.0684 213.564 75.0684ZM208.231 68.4017C207.347 68.4017 206.499 68.7529 205.874 69.378C205.249 70.0031 204.898 70.851 204.898 71.735V73.0684C204.898 73.4417 205.191 73.735 205.564 73.735H213.564C213.938 73.735 214.231 73.4417 214.231 73.0684V71.735C214.231 70.851 213.88 70.0031 213.255 69.378C212.63 68.7529 211.782 68.4017 210.898 68.4017H208.231Z" fill="#264025"/>
<path d="M163 58.1V56.3L161.294 56.1C161.199 56.1 160.63 56 159.682 56C155.796 56 152.953 57.2 151.341 59.3C150.109 58.5 148.403 58 146.412 58C145.464 58 144.801 58.1 144.801 58.1L143 58.4L143.095 60.1C143.19 63.1 144.611 68.8 149.54 68.8H149.73V72.2C146.128 72.7 143.095 74 143.095 74V76H162.052V74C162.052 74 159.019 72.7 155.417 72.2V69C161.389 68.9 163 61.8 163 58.1ZM152.573 72H151.626V66.4C151.626 66.4 151.436 63 148.782 63C148.782 63 150.204 63.8 150.583 66.7C150.204 66.8 149.825 66.8 149.54 66.8C145.18 66.8 144.991 60.1 144.991 60.1C144.991 60.1 145.559 60 146.412 60C148.213 60 151.152 60.4 152.005 63.1C152.479 58.6 157.313 58 159.682 58C160.536 58 161.104 58.1 161.104 58.1C161.104 58.1 161.104 67.1 155.133 67.1H154.469C154.469 65.1 156.365 62.1 156.365 62.1C153.521 63.1 153.521 67 153.521 67V72H152.573Z" fill="#264025"/>
</svg>
