<svg width="51" height="51" viewBox="0 0 51 51" fill="none" xmlns="http://www.w3.org/2000/svg">
<path d="M20.2825 2.88675C23.3765 1.10043 27.1885 1.10042 30.2825 2.88675L42.1778 9.75449C45.2718 11.5408 47.1778 14.8421 47.1778 18.4147V32.1502C47.1778 35.7229 45.2718 39.0242 42.1778 40.8105L30.2825 47.6782C27.1885 49.4646 23.3765 49.4646 20.2825 47.6782L8.38722 40.8105C5.29321 39.0242 3.38721 35.7229 3.38721 32.1502V18.4148C3.38721 14.8421 5.2932 11.5408 8.38721 9.7545L20.2825 2.88675Z" fill="#DDCBB7"/>
<path d="M35 17.1V15.3L33.2938 15.1C33.1991 15.1 32.6303 15 31.6825 15C27.7962 15 24.9526 16.2 23.3412 18.3C22.109 17.5 20.4028 17 18.4123 17C17.4645 17 16.8009 17.1 16.8009 17.1L15 17.4L15.0948 19.1C15.1896 22.1 16.6114 27.8 21.5403 27.8H21.7299V31.2C18.128 31.7 15.0948 33 15.0948 33V35H34.0521V33C34.0521 33 31.019 31.7 27.4171 31.2V28C33.3886 27.9 35 20.8 35 17.1ZM24.5735 31H23.6256V25.4C23.6256 25.4 23.436 22 20.782 22C20.782 22 22.2038 22.8 22.5829 25.7C22.2038 25.8 21.8246 25.8 21.5403 25.8C17.1801 25.8 16.9905 19.1 16.9905 19.1C16.9905 19.1 17.5592 19 18.4123 19C20.2133 19 23.1517 19.4 24.0047 22.1C24.4787 17.6 29.3128 17 31.6825 17C32.5355 17 33.1043 17.1 33.1043 17.1C33.1043 17.1 33.1043 26.1 27.1327 26.1H26.4692C26.4692 24.1 28.3649 21.1 28.3649 21.1C25.5213 22.1 25.5213 26 25.5213 26V31H24.5735Z" fill="#264025"/>
</svg>
