<svg width="11" height="14" viewBox="0 0 11 14" fill="none" xmlns="http://www.w3.org/2000/svg">
<path d="M5.5 7C5.00555 7 4.5222 6.85338 4.11108 6.57868C3.69995 6.30397 3.37952 5.91353 3.1903 5.45671C3.00108 4.99989 2.95157 4.49723 3.04804 4.01228C3.1445 3.52732 3.3826 3.08187 3.73223 2.73223C4.08187 2.3826 4.52732 2.1445 5.01228 2.04804C5.49723 1.95157 5.9999 2.00108 6.45671 2.1903C6.91353 2.37952 7.30397 2.69995 7.57868 3.11108C7.85338 3.5222 8 4.00555 8 4.5C7.99921 5.1628 7.73556 5.79822 7.26689 6.26689C6.79822 6.73556 6.1628 6.99921 5.5 7ZM5.5 3C5.20333 3 4.91332 3.08797 4.66665 3.2528C4.41997 3.41762 4.22771 3.65189 4.11418 3.92598C4.00065 4.20007 3.97095 4.50167 4.02882 4.79264C4.0867 5.08361 4.22956 5.35088 4.43934 5.56066C4.64912 5.77044 4.91639 5.9133 5.20737 5.97118C5.49834 6.02906 5.79994 5.99935 6.07403 5.88582C6.34812 5.77229 6.58238 5.58003 6.74721 5.33336C6.91203 5.08668 7 4.79667 7 4.5C6.9996 4.1023 6.84144 3.721 6.56022 3.43978C6.279 3.15856 5.8977 3.0004 5.5 3Z" fill="black"/>
<path d="M5.5 14L1.282 9.0255C1.22339 8.95081 1.16539 8.87564 1.108 8.8C0.387857 7.8507 -0.00133722 6.69155 3.45209e-06 5.5C3.45209e-06 4.04131 0.579466 2.64236 1.61092 1.61091C2.64237 0.579463 4.04131 0 5.5 0C6.95869 0 8.35764 0.579463 9.38909 1.61091C10.4205 2.64236 11 4.04131 11 5.5C11.0012 6.69098 10.6122 7.84954 9.8925 8.7985L9.892 8.8C9.892 8.8 9.742 8.997 9.7195 9.0235L5.5 14ZM1.9065 8.1975C1.9065 8.1975 2.023 8.3515 2.0495 8.3845L5.5 12.454L8.955 8.379C8.977 8.3515 9.0945 8.196 9.0945 8.196C9.68311 7.42057 10.0012 6.47352 10 5.5C10 4.30653 9.5259 3.16193 8.68198 2.31802C7.83807 1.47411 6.69348 1 5.5 1C4.30653 1 3.16194 1.47411 2.31802 2.31802C1.47411 3.16193 1 4.30653 1 5.5C0.99877 6.47415 1.31723 7.42179 1.9065 8.1975Z" fill="black"/>
</svg>
