<svg width="51" height="51" viewBox="0 0 51 51" fill="none" xmlns="http://www.w3.org/2000/svg">
<path d="M20.2825 2.88675C23.3765 1.10043 27.1885 1.10042 30.2825 2.88675L42.1778 9.75449C45.2718 11.5408 47.1778 14.8421 47.1778 18.4147V32.1502C47.1778 35.7229 45.2718 39.0242 42.1778 40.8105L30.2825 47.6782C27.1885 49.4646 23.3765 49.4646 20.2825 47.6782L8.38722 40.8105C5.29321 39.0242 3.38721 35.7229 3.38721 32.1502V18.4148C3.38721 14.8421 5.2932 11.5408 8.38721 9.7545L20.2825 2.88675Z" fill="#DDCBB7"/>
<path d="M25.0013 22.6667C24.1172 22.6667 23.2694 22.3155 22.6443 21.6904C22.0192 21.0652 21.668 20.2174 21.668 19.3333C21.668 18.4493 22.0192 17.6014 22.6443 16.9763C23.2694 16.3512 24.1172 16 25.0013 16C25.8854 16 26.7332 16.3512 27.3583 16.9763C27.9834 17.6014 28.3346 18.4493 28.3346 19.3333C28.3346 20.2174 27.9834 21.0652 27.3583 21.6904C26.7332 22.3155 25.8854 22.6667 25.0013 22.6667ZM25.0013 17.3333C23.8946 17.3333 23.0013 18.2267 23.0013 19.3333C23.0013 20.44 23.8946 21.3333 25.0013 21.3333C26.108 21.3333 27.0013 20.44 27.0013 19.3333C27.0013 18.2267 26.108 17.3333 25.0013 17.3333Z" fill="#264025"/>
<path d="M33 28C32.6267 28 32.3333 27.7067 32.3333 27.3333C32.3333 26.96 32.6267 26.6667 33 26.6667C33.3733 26.6667 33.6667 26.3733 33.6667 26C33.6667 25.1159 33.3155 24.2681 32.6904 23.643C32.0652 23.0179 31.2174 22.6667 30.3333 22.6667H29C28.6267 22.6667 28.3333 22.3733 28.3333 22C28.3333 21.6267 28.6267 21.3333 29 21.3333C30.1067 21.3333 31 20.44 31 19.3333C31 18.2267 30.1067 17.3333 29 17.3333C28.6267 17.3333 28.3333 17.04 28.3333 16.6667C28.3333 16.2933 28.6267 16 29 16C29.8841 16 30.7319 16.3512 31.357 16.9763C31.9821 17.6014 32.3333 18.4493 32.3333 19.3333C32.3333 20.16 32.04 20.9067 31.5333 21.4933C33.52 22.0267 35 23.84 35 26C35 27.1067 34.1067 28 33 28ZM17 28C15.8933 28 15 27.1067 15 26C15 23.84 16.4667 22.0267 18.4667 21.4933C17.9733 20.9067 17.6667 20.16 17.6667 19.3333C17.6667 18.4493 18.0179 17.6014 18.643 16.9763C19.2681 16.3512 20.1159 16 21 16C21.3733 16 21.6667 16.2933 21.6667 16.6667C21.6667 17.04 21.3733 17.3333 21 17.3333C19.8933 17.3333 19 18.2267 19 19.3333C19 20.44 19.8933 21.3333 21 21.3333C21.3733 21.3333 21.6667 21.6267 21.6667 22C21.6667 22.3733 21.3733 22.6667 21 22.6667H19.6667C18.7826 22.6667 17.9348 23.0179 17.3096 23.643C16.6845 24.2681 16.3333 25.1159 16.3333 26C16.3333 26.3733 16.6267 26.6667 17 26.6667C17.3733 26.6667 17.6667 26.96 17.6667 27.3333C17.6667 27.7067 17.3733 28 17 28ZM29 32H21C19.8933 32 19 31.1067 19 30V28.6667C19 26.0933 21.0933 24 23.6667 24H26.3333C28.9067 24 31 26.0933 31 28.6667V30C31 31.1067 30.1067 32 29 32ZM23.6667 25.3333C22.7826 25.3333 21.9348 25.6845 21.3096 26.3096C20.6845 26.9348 20.3333 27.7826 20.3333 28.6667V30C20.3333 30.3733 20.6267 30.6667 21 30.6667H29C29.3733 30.6667 29.6667 30.3733 29.6667 30V28.6667C29.6667 27.7826 29.3155 26.9348 28.6904 26.3096C28.0652 25.6845 27.2174 25.3333 26.3333 25.3333H23.6667Z" fill="#264025"/>
</svg>
