<svg width="25" height="25" viewBox="0 0 25 25" fill="none" xmlns="http://www.w3.org/2000/svg">
<path d="M12.501 15.0625C14.14 15.0615 15.753 15.2543 17.3418 15.6406C18.9277 16.0262 20.4941 16.6018 22.041 17.3721V17.373C22.6301 17.6779 23.1014 18.1164 23.4648 18.708C23.8227 19.2905 24.0008 19.922 24 20.624V24H1V20.625C1 19.9213 1.17853 19.2893 1.53613 18.708C1.85433 18.1908 2.25534 17.7902 2.74512 17.4932L2.96094 17.3721C4.50707 16.6002 6.0724 16.024 7.65723 15.6406C9.24684 15.2562 10.8611 15.0635 12.501 15.0625ZM12.5 1C13.9514 1 15.1691 1.50505 16.207 2.54297C17.2449 3.58089 17.75 4.79858 17.75 6.25C17.75 7.70142 17.2449 8.91911 16.207 9.95703C15.1691 10.9949 13.9514 11.5 12.5 11.5C11.0486 11.5 9.83089 10.9949 8.79297 9.95703C7.75505 8.91911 7.25 7.70142 7.25 6.25C7.25 4.79858 7.75505 3.58089 8.79297 2.54297C9.83089 1.50505 11.0486 1 12.5 1Z" stroke="#7B4B36" stroke-width="2"/>
</svg>
