<svg width="30" height="30" viewBox="0 0 30 30" fill="none" xmlns="http://www.w3.org/2000/svg">
<path d="M27.2742 19.2742L24.1492 24.6867C23.5367 25.7617 22.3992 26.3242 21.2492 26.2492H18.7492V28.7492L15.6242 23.1242L18.7492 17.4992V19.9992H22.2742L19.4992 15.1867L24.9117 12.0617L27.1617 15.9617C27.8117 16.9242 27.8992 18.2117 27.2742 19.2742ZM11.5117 3.82422H17.7617C18.9867 3.82422 20.0492 4.53672 20.5617 5.56172L21.8117 7.73672L23.9742 6.48672L20.6742 11.9992L14.2367 12.1117L16.3992 10.8617L14.6367 7.79922L11.8742 12.6117L6.44922 9.48672L8.69922 5.58672C9.21172 4.54922 10.2742 3.82422 11.5117 3.82422ZM6.31172 24.6992L3.18672 19.2867C2.57422 18.2242 2.66172 16.9492 3.29922 15.9867L4.54922 13.8242L2.38672 12.5742L8.81172 12.6742L12.1242 18.1992L9.96172 16.9492L8.19922 19.9992H13.7492V26.2492H9.24922C8.6636 26.2916 8.07784 26.1688 7.55855 25.8948C7.03926 25.6208 6.60727 25.2066 6.31172 24.6992Z" fill="#264025"/>
</svg>
