<svg width="24" height="30" viewBox="0 0 24 30" fill="none" xmlns="http://www.w3.org/2000/svg">
<path fill-rule="evenodd" clip-rule="evenodd" d="M11.9969 1.5789C10.7916 1.5789 9.68486 2.0731 8.83094 2.9036C8.35312 3.36937 7.95544 3.94094 7.67029 4.58671C7.58932 4.77077 7.44258 4.91606 7.26024 4.99271C7.07791 5.06936 6.87383 5.07154 6.68998 4.9988C4.16676 4.80459 1.8547 6.85085 1.56955 9.78445C1.37688 11.7897 2.19688 13.637 3.54404 14.7232C3.69664 14.8464 3.79066 15.0153 3.82457 15.1953C3.89456 15.3566 3.90975 15.5373 3.86773 15.7085C3.724 16.2921 3.67711 16.8963 3.72901 17.4958C3.9448 20.0284 6.30464 21.8015 8.43327 21.5804C9.25482 21.4952 9.82975 21.3562 10.2629 21.0989C10.6498 20.8683 10.9827 20.5083 11.2524 19.8515C11.2803 19.7429 11.3305 19.6417 11.3996 19.5546C11.4687 19.4674 11.5551 19.3964 11.6531 19.3461C11.7512 19.2959 11.8585 19.2677 11.968 19.2634C12.0776 19.2591 12.1867 19.2787 12.2882 19.321C12.4003 19.3666 12.5004 19.4385 12.5805 19.5309C12.6605 19.6233 12.7183 19.7337 12.7491 19.8531C13.0188 20.5083 13.3502 20.8683 13.7387 21.0989C14.1702 21.3562 14.7467 21.4952 15.5667 21.5804C17.6954 21.8015 20.0552 20.0284 20.271 17.4958C20.3229 16.8963 20.276 16.2921 20.1323 15.7085C20.0904 15.5366 20.1061 15.3553 20.177 15.1938C20.2118 15.0077 20.3109 14.8407 20.456 14.7232C21.8047 13.637 22.6247 11.7897 22.4305 9.78445C22.1468 6.84769 19.8271 4.79986 17.3023 5.00038C17.1185 5.07255 16.9146 5.0699 16.7326 4.99297C16.5506 4.91605 16.4042 4.77068 16.3235 4.58671C16.0464 3.95416 15.6523 3.38259 15.1629 2.9036C14.3143 2.05966 13.1797 1.58493 11.9969 1.5789ZM17.4688 3.41043C17.1377 2.79893 16.7183 2.24214 16.2249 1.7589C15.0897 0.636103 13.5749 0.0059416 11.9969 0C10.4189 0.0059416 8.90415 0.636103 7.76894 1.7589C7.28032 2.23414 6.85953 2.7915 6.52505 3.40885C3.19569 3.3078 0.382692 6.04719 0.0358837 9.63129C-0.195322 12.0154 0.70638 14.2638 2.28937 15.7069C2.17075 16.3414 2.1391 16.9897 2.19534 17.6332C2.4882 21.0767 5.63876 23.4593 8.58895 23.153C9.47061 23.0614 10.3122 22.8956 11.0351 22.4662C11.404 22.2483 11.7256 21.9694 12 21.6294C12.2764 21.9694 12.5981 22.2483 12.9649 22.4662C13.6893 22.8956 14.5309 23.0614 15.4126 23.153C18.3628 23.4593 21.5133 21.0767 21.8062 17.6347C21.8619 16.9912 21.8298 16.3429 21.7106 15.7085C23.2936 14.2638 24.1953 12.0154 23.9641 9.62972C23.6173 6.04403 20.7997 3.30622 17.4688 3.41043Z" fill="#264025"/>
<path fill-rule="evenodd" clip-rule="evenodd" d="M16.6663 11.436C16.7183 11.525 16.7527 11.6235 16.7676 11.7261C16.7824 11.8287 16.7774 11.9332 16.7528 12.0338C16.7281 12.1344 16.6844 12.229 16.6241 12.3123C16.5638 12.3956 16.488 12.4659 16.4012 12.5191L12.9223 14.657V29.2097C12.9223 29.4191 12.8411 29.6199 12.6966 29.7679C12.552 29.916 12.356 29.9991 12.1516 29.9991C11.9472 29.9991 11.7512 29.916 11.6066 29.7679C11.4621 29.6199 11.3809 29.4191 11.3809 29.2097V18.6042L7.90204 16.468C7.72666 16.3603 7.60021 16.1858 7.55049 15.9826C7.50077 15.7795 7.53186 15.5645 7.63692 15.3848C7.74198 15.2052 7.91241 15.0757 8.1107 15.0247C8.309 14.9738 8.51893 15.0056 8.6943 15.1133L11.3809 16.7648V8.68398C11.3809 8.47461 11.4621 8.27381 11.6066 8.12576C11.7512 7.97771 11.9472 7.89453 12.1516 7.89453C12.356 7.89453 12.552 7.97771 12.6966 8.12576C12.8411 8.27381 12.9223 8.47461 12.9223 8.68398V12.816L15.6089 11.1644C15.6957 11.1111 15.792 11.0759 15.8921 11.0607C15.9922 11.0455 16.0943 11.0506 16.1925 11.0758C16.2907 11.1011 16.3831 11.1458 16.4644 11.2076C16.5457 11.2694 16.6143 11.347 16.6663 11.436Z" fill="#264025"/>
</svg>
